<svg width="297" height="56" viewBox="0 0 297 56" fill="none" xmlns="http://www.w3.org/2000/svg">
<path d="M13.2299 6.85367C12.7834 7.11144 12.6304 7.68242 12.8881 8.12896L15.6889 12.9808C15.9474 13.4288 16.5189 13.5797 16.9642 13.3226C17.4107 13.0649 17.5638 12.4939 17.306 12.0473L14.5052 7.19546C14.2475 6.74893 13.6766 6.596 13.2299 6.85367V6.85367Z" fill="white" stroke="white" stroke-width="1.11816"/>
<path d="M45.113 15.3971C44.8552 14.9506 44.2842 14.7977 43.8377 15.0553L38.9858 17.8561C38.5393 18.1139 38.3862 18.6849 38.644 19.1314C38.9025 19.5793 39.474 19.7302 39.9193 19.4732L44.7712 16.6724C45.2177 16.4146 45.3707 15.8438 45.113 15.3971Z" fill="white" stroke="white" stroke-width="1.11816"/>
<path d="M11.1554 19.1315C11.4132 18.6849 11.2602 18.114 10.8136 17.8562L5.96177 15.0554C5.51523 14.7976 4.94424 14.9507 4.68648 15.3972C4.42871 15.8437 4.58173 16.4147 5.02827 16.6725L9.88015 19.4733C10.3238 19.7295 10.8961 19.5807 11.1554 19.1315Z" fill="white" stroke="white" stroke-width="1.11816"/>
<path d="M35.2944 7.1955L32.4936 12.0474C32.2358 12.4939 32.3889 13.0649 32.8354 13.3227C33.2791 13.5789 33.8513 13.4301 34.1107 12.9809L36.9115 8.129C37.1692 7.68247 37.0162 7.11148 36.5697 6.85372C36.1231 6.59595 35.5522 6.74897 35.2944 7.1955V7.1955Z" fill="white" stroke="white" stroke-width="1.11816"/>
<path d="M23.9663 4.66064V10.2622C23.9663 10.7778 24.3843 11.1958 24.8999 11.1958C25.4155 11.1958 25.8335 10.7778 25.8335 10.2622V4.66064C25.8335 4.14502 25.4155 3.72705 24.8999 3.72705C24.3843 3.72705 23.9663 4.14502 23.9663 4.66064Z" fill="white" stroke="white" stroke-width="1.11816"/>
<path d="M41.7043 28.0005H47.8661C48.3817 28.0005 48.7997 27.5825 48.7997 27.0669C48.7997 26.5513 48.3817 26.1333 47.8661 26.1333H41.7043C41.1887 26.1333 40.7708 26.5513 40.7708 27.0669C40.7708 27.5825 41.1887 28.0005 41.7043 28.0005Z" fill="white" stroke="white" stroke-width="1.11816"/>
<path d="M1.93359 26.1333C1.41797 26.1333 1 26.5513 1 27.0669C1 27.5825 1.41797 28.0005 1.93359 28.0005H8.09531C8.61093 28.0005 9.0289 27.5825 9.0289 27.0669C9.0289 26.5513 8.61093 26.1333 8.09531 26.1333H1.93359Z" fill="white" stroke="white" stroke-width="1.11816"/>
<path d="M24.8999 47.606C25.4155 47.606 25.8335 47.188 25.8335 46.6724C25.8335 46.1568 25.4155 45.7388 24.8999 45.7388C24.3843 45.7388 23.9663 46.1568 23.9663 46.6724C23.9663 47.188 24.3843 47.606 24.8999 47.606Z" fill="white" stroke="white" stroke-width="1.11816"/>
<path d="M1.93359 47.6059H20.6988C21.2144 47.6059 21.6324 47.188 21.6324 46.6723C21.6324 46.1567 21.2144 45.7387 20.6988 45.7387H2.86719V39.6658C4.42349 40.2696 7.17693 41.2184 10.1826 41.7017C14.5299 43.7749 18.4674 44.8049 22.0948 44.8047C28.7186 44.8043 32.9707 41.4616 37.1409 37.9256C39.6108 35.8314 41.7572 34.0124 44.0869 33.7776C45.4192 34.6502 46.448 35.4843 46.9329 35.8948V45.7387H29.1011C28.5855 45.7387 28.1676 46.1567 28.1676 46.6723C28.1676 47.188 28.5855 47.6059 29.1011 47.6059H47.8664C48.382 47.6059 48.8 47.188 48.8 46.6723V35.4692C48.8 35.2062 48.689 34.9554 48.4944 34.7785C45.8701 32.3925 41.0373 29.2945 36.8884 28.9661C36.9868 28.34 37.0367 27.7047 37.0367 27.0669C37.0367 20.3747 31.5922 14.9302 24.9 14.9302C18.2078 14.9302 12.7633 20.3747 12.7633 27.0669C12.7633 28.8339 13.1383 30.5423 13.8577 32.1115C12.8225 31.8614 11.832 31.7348 10.8961 31.7348C6.4913 31.7348 1.6636 34.5449 1.46026 34.6646C1.17505 34.8322 1 35.1384 1 35.4692V46.6723C1 47.188 1.41797 47.6059 1.93359 47.6059V47.6059ZM35.9333 36.5016C31.1395 40.5663 25.7849 45.1056 15.521 41.8353C19.3944 41.1396 23.5314 38.1637 25.5597 36.1297C27.9748 33.7212 32.433 30.8013 36.1031 30.8013C38.0333 30.8013 40.0694 31.5531 41.8054 32.4442C39.7605 33.2565 37.8859 34.846 35.9333 36.5016ZM24.9 16.7974C30.5626 16.7974 35.1695 21.4043 35.1695 27.0669C35.1695 27.7179 35.1084 28.3653 34.988 28.9993C29.4842 29.6241 24.46 34.5889 24.2402 34.8086C24.2336 34.8152 23.6431 35.4016 22.6759 36.1769C20.9989 35.4725 19.8284 34.7004 19.816 34.6923C19.758 34.6536 18.4288 33.7743 16.5066 32.9824C15.2795 31.2469 14.6305 29.2078 14.6305 27.0669C14.6305 21.4043 19.2374 16.7974 24.9 16.7974V16.7974ZM10.8961 33.602C13.5295 33.602 16.8063 34.9371 18.7806 36.246C18.8271 36.2771 19.6595 36.828 20.9473 37.4463C19.0552 38.713 16.3403 40.1372 13.6969 40.1372C10.2259 40.1372 6.06829 38.9698 2.86719 37.6531V36.021C4.12427 35.3542 7.72953 33.602 10.8961 33.602V33.602Z" fill="white" stroke="white" stroke-width="1.11816"/>
<path d="M58.6406 41V13.6562H64.1484V35.5312H73.3281V41H58.6406ZM75.1641 41L80.2031 18.2656H80.7891L83.1328 29.2031L80.5547 41H75.1641ZM83.4844 37.6797L84.6562 32.2891H86.0625L81.9219 13.6562H87.3516L93.7969 41H88.3281L87.5469 37.6797H83.4844ZM96.0234 33.5V20.5312C96.2578 18.6823 97.0521 17.0547 98.4062 15.6484C99.8385 14.1901 101.596 13.4609 103.68 13.4609V18.9688C102.56 18.9948 101.87 19.5286 101.609 20.5703C101.557 20.8047 101.531 21 101.531 21.1562V33.5C101.557 34.5677 102.156 35.2708 103.328 35.6094C103.484 35.6615 103.602 35.6875 103.68 35.6875V41.1953C102.169 41.1953 100.659 40.6615 99.1484 39.5938C97.0911 38.0833 96.0495 36.0521 96.0234 33.5ZM105.789 41.1953V35.6875C106.076 35.6875 106.44 35.4531 106.883 34.9844C107.273 34.5417 107.469 34.0729 107.469 33.5781V32.2891H105.789V27.2109H113.016V34.125C113.016 35.7396 112.182 37.3281 110.516 38.8906C108.927 40.401 107.352 41.1693 105.789 41.1953ZM105.789 18.9688V13.4609C107.716 13.4609 109.435 14.2943 110.945 15.9609C112.326 17.4453 113.016 19.0729 113.016 20.8438L107.625 22.8359V21.3125C107.625 20.0885 107.156 19.3333 106.219 19.0469C106.062 18.9948 105.919 18.9688 105.789 18.9688ZM115.828 33.3828V20.5312C115.828 19.151 116.414 17.7448 117.586 16.3125C119.148 14.4375 121.128 13.487 123.523 13.4609V18.9688C122.456 18.9948 121.753 19.5938 121.414 20.7656C121.362 20.9479 121.336 21.0781 121.336 21.1562V33.3828C121.336 34.4505 121.922 35.1797 123.094 35.5703C123.276 35.6224 123.406 35.6484 123.484 35.6484V41.1953C122 41.1953 120.516 40.6615 119.031 39.5938C116.922 38.0312 115.854 35.9609 115.828 33.3828ZM125.633 41.1953V35.6484C126.049 35.6484 126.518 35.4271 127.039 34.9844C127.534 34.5417 127.794 34.0078 127.82 33.3828V21.1562C127.82 20.6875 127.599 20.1927 127.156 19.6719C126.74 19.2292 126.232 18.9948 125.633 18.9688V13.4609C128.263 13.4609 130.372 14.5938 131.961 16.8594C132.872 18.1615 133.328 19.3854 133.328 20.5312V33.3828C133.328 36.2734 132.039 38.487 129.461 40.0234C128.107 40.8047 126.831 41.1953 125.633 41.1953ZM135.594 34.8281L140.555 33.0703C140.555 33.7214 140.737 34.2943 141.102 34.7891C141.466 35.2839 141.831 35.6094 142.195 35.7656L142.742 36.0391V41.1172C140.529 41.1172 138.641 40.1536 137.078 38.2266C136.115 37.0026 135.62 35.8698 135.594 34.8281ZM135.906 21.1562C135.906 18.2917 137.13 16.1432 139.578 14.7109C140.698 14.0339 141.753 13.6823 142.742 13.6562V18.8125C142.091 18.9948 141.609 19.4635 141.297 20.2188C141.193 20.4531 141.141 20.7005 141.141 20.9609C141.141 22.0286 141.935 22.9401 143.523 23.6953C143.862 23.8516 144.409 24.0859 145.164 24.3984C146.414 24.8932 147.299 25.2969 147.82 25.6094C149.93 26.8594 151.336 28.1354 152.039 29.4375C152.56 30.4531 152.82 31.5859 152.82 32.8359C152.82 35.2057 151.922 37.237 150.125 38.9297C148.589 40.388 146.844 41.1172 144.891 41.1172V36.0391C145.906 35.9089 146.622 35.375 147.039 34.4375C147.221 34.0208 147.312 33.5651 147.312 33.0703C147.312 31.7422 146.323 30.6484 144.344 29.7891C143.979 29.6328 143.406 29.4115 142.625 29.125C141.714 28.8125 141.076 28.5651 140.711 28.3828C138.471 27.3151 137.039 25.9349 136.414 24.2422C136.076 23.3307 135.906 22.3021 135.906 21.1562ZM144.891 18.8125V13.6562C147.078 13.6562 148.914 14.5807 150.398 16.4297C151.258 17.5234 151.701 18.513 151.727 19.3984L146.648 21.0781C146.648 19.9844 146.115 19.2422 145.047 18.8516C144.943 18.8255 144.891 18.8125 144.891 18.8125ZM164.227 41V13.6562H169.734V35.5312H178.914V41H164.227ZM181.141 41V13.6562H195.359V19.125H186.648V24.6719H191.688V30.1797H186.648V35.4922H195.359V41H181.141ZM198.328 33.5V20.5312C198.562 18.6823 199.357 17.0547 200.711 15.6484C202.143 14.1901 203.901 13.4609 205.984 13.4609V18.9688C204.865 18.9948 204.174 19.5286 203.914 20.5703C203.862 20.8047 203.836 21 203.836 21.1562V33.5C203.862 34.5677 204.461 35.2708 205.633 35.6094C205.789 35.6615 205.906 35.6875 205.984 35.6875V41.1953C204.474 41.1953 202.964 40.6615 201.453 39.5938C199.396 38.0833 198.354 36.0521 198.328 33.5ZM208.094 41.1953V35.6875C208.38 35.6875 208.745 35.4531 209.188 34.9844C209.578 34.5417 209.773 34.0729 209.773 33.5781V32.2891H208.094V27.2109H215.32V34.125C215.32 35.7396 214.487 37.3281 212.82 38.8906C211.232 40.401 209.656 41.1693 208.094 41.1953ZM208.094 18.9688V13.4609C210.021 13.4609 211.74 14.2943 213.25 15.9609C214.63 17.4453 215.32 19.0729 215.32 20.8438L209.93 22.8359V21.3125C209.93 20.0885 209.461 19.3333 208.523 19.0469C208.367 18.9948 208.224 18.9688 208.094 18.9688ZM217.898 41L222.938 18.2656H223.523L225.867 29.2031L223.289 41H217.898ZM226.219 37.6797L227.391 32.2891H228.797L224.656 13.6562H230.086L236.531 41H231.062L230.281 37.6797H226.219ZM238.758 33.9297V20.7656C238.758 19.2552 239.318 17.7839 240.438 16.3516C241.922 14.4505 243.927 13.487 246.453 13.4609V18.9688C245.359 18.9948 244.656 19.5026 244.344 20.4922C244.292 20.5964 244.266 20.6875 244.266 20.7656V33.9297C244.266 34.3464 244.487 34.75 244.93 35.1406C245.346 35.5052 245.854 35.6875 246.453 35.6875V41.1953C243.536 41.1953 241.336 39.9714 239.852 37.5234C239.122 36.2734 238.758 35.0755 238.758 33.9297ZM248.562 41.1953V35.6875C248.562 35.6875 248.862 35.5703 249.461 35.3359C249.826 35.0755 250.073 34.8021 250.203 34.5156C250.333 34.1771 250.398 33.6953 250.398 33.0703V32.6016L255.789 33.8906C255.789 36.1562 254.878 38.0312 253.055 39.5156C251.674 40.6354 250.177 41.1953 248.562 41.1953ZM248.562 18.9688V13.4609C250.464 13.4609 252.182 14.2943 253.719 15.9609C255.099 17.4714 255.789 19.099 255.789 20.8438L250.398 22.25V21.6641C250.398 21.013 250.333 20.5312 250.203 20.2188C250.099 19.9583 249.904 19.724 249.617 19.5156C249.357 19.3073 249.122 19.1641 248.914 19.0859L248.562 18.9688ZM257.039 13.6562H262.781L267.859 31.1172V41H262.156V31.1562L257.039 13.6562ZM266.531 18.9297L268.055 13.6562H273.719L269.461 28.0703H269.109L266.531 18.9297Z" fill="white"/>
</svg>
